<svg width="64" height="64" viewBox="0 0 64 64" fill="none" xmlns="http://www.w3.org/2000/svg">
<path d="M55.91 2.5H8.09C5.00273 2.5 2.5 5.00273 2.5 8.09V55.91C2.5 58.9973 5.00273 61.5 8.09 61.5H55.91C58.9973 61.5 61.5 58.9973 61.5 55.91V8.09C61.5 5.00273 58.9973 2.5 55.91 2.5Z" fill="#5c79e0" id="id_101"></path>
<path d="M60 2.5H4C3.60218 2.5 3.22064 2.65804 2.93934 2.93934C2.65804 3.22064 2.5 3.60218 2.5 4V10C2.5 10.3978 2.65804 10.7794 2.93934 11.0607C3.22064 11.342 3.60218 11.5 4 11.5C4.39782 11.5 4.77936 11.342 5.06066 11.0607C5.34196 10.7794 5.5 10.3978 5.5 10V5.5H58.5V17H46.17C45.7722 17 45.3906 17.158 45.1093 17.4393C44.828 17.7206 44.67 18.1022 44.67 18.5V33.26H38.29V10.93C38.29 10.5322 38.132 10.1506 37.8507 9.86934C37.5694 9.58804 37.1878 9.43 36.79 9.43H21.07C20.6722 9.43 20.2906 9.58804 20.0093 9.86934C19.728 10.1506 19.57 10.5322 19.57 10.93C19.57 11.3278 19.728 11.7094 20.0093 11.9907C20.2906 12.272 20.6722 12.43 21.07 12.43H35.29V34.76C35.29 35.1578 35.448 35.5394 35.7293 35.8207C36.0106 36.102 36.3922 36.26 36.79 36.26H46.17C46.5678 36.26 46.9494 36.102 47.2307 35.8207C47.512 35.5394 47.67 35.1578 47.67 34.76V20H58.5V58.5H51.6V40.08C51.6 39.6822 51.442 39.3006 51.1607 39.0193C50.8794 38.738 50.4978 38.58 50.1 38.58H41.1C40.7022 38.58 40.3206 38.738 40.0393 39.0193C39.758 39.3006 39.6 39.6822 39.6 40.08V48.22H29.8V37.42C29.8 37.0222 29.642 36.6406 29.3607 36.3593C29.0794 36.078 28.6978 35.92 28.3 35.92H19.17C18.7722 35.92 18.3906 36.078 18.1093 36.3593C17.828 36.6406 17.67 37.0222 17.67 37.42C17.67 37.8178 17.828 38.1994 18.1093 38.4807C18.3906 38.762 18.7722 38.92 19.17 38.92H26.8V49.72C26.8 50.1178 26.958 50.4994 27.2393 50.7807C27.5206 51.062 27.9022 51.22 28.3 51.22H41.1C41.4978 51.22 41.8794 51.062 42.1607 50.7807C42.442 50.4994 42.6 50.1178 42.6 49.72V41.58H48.6V60C48.6 60.3978 48.758 60.7794 49.0393 61.0607C49.3206 61.342 49.7022 61.5 50.1 61.5H60C60.3978 61.5 60.7794 61.342 61.0607 61.0607C61.342 60.7794 61.5 60.3978 61.5 60V4C61.5 3.60218 61.342 3.22064 61.0607 2.93934C60.7794 2.65804 60.3978 2.5 60 2.5Z" fill="#ffe600" id="id_102"></path>
<path d="M41.1 58.5H20.67V45.79C20.67 45.3922 20.512 45.0106 20.2307 44.7293C19.9494 44.448 19.5678 44.29 19.17 44.29H12.56V26.29C12.56 25.8922 12.402 25.5106 12.1207 25.2293C11.8394 24.948 11.4578 24.79 11.06 24.79C10.6622 24.79 10.2806 24.948 9.99934 25.2293C9.71804 25.5106 9.56 25.8922 9.56 26.29V45.79C9.56 46.1878 9.71804 46.5693 9.99934 46.8507C10.2806 47.132 10.6622 47.29 11.06 47.29H17.67V58.5H5.5V20.5H21.07C21.4678 20.5 21.8494 20.342 22.1307 20.0607C22.412 19.7793 22.57 19.3978 22.57 19C22.57 18.6022 22.412 18.2206 22.1307 17.9393C21.8494 17.658 21.4678 17.5 21.07 17.5H13.5V10.93C13.5 10.5322 13.342 10.1506 13.0607 9.86933C12.7794 9.58803 12.3978 9.42999 12 9.42999C11.6022 9.42999 11.2206 9.58803 10.9393 9.86933C10.658 10.1506 10.5 10.5322 10.5 10.93V17.54H4C3.60901 17.5399 3.23342 17.6924 2.95324 17.9651C2.67305 18.2378 2.51043 18.6091 2.5 19V60C2.5 60.3978 2.65804 60.7793 2.93934 61.0607C3.22064 61.342 3.60218 61.5 4 61.5H41.1C41.4978 61.5 41.8794 61.342 42.1607 61.0607C42.442 60.7793 42.6 60.3978 42.6 60C42.6 59.6022 42.442 59.2206 42.1607 58.9393C41.8794 58.658 41.4978 58.5 41.1 58.5V58.5Z" fill="#ffbf00" id="id_103"></path>
<path d="M18.94 29.06C18.94 29.4578 19.098 29.8394 19.3793 30.1207C19.6606 30.402 20.0422 30.56 20.44 30.56H29.31C29.7078 30.56 30.0894 30.402 30.3707 30.1207C30.652 29.8394 30.81 29.4578 30.81 29.06V17.9C30.81 17.5022 30.652 17.1207 30.3707 16.8394C30.0894 16.5581 29.7078 16.4 29.31 16.4C28.9122 16.4 28.5306 16.5581 28.2493 16.8394C27.968 17.1207 27.81 17.5022 27.81 17.9V27.56H20.44C20.0422 27.56 19.6606 27.7181 19.3793 27.9994C19.098 28.2807 18.94 28.6622 18.94 29.06V29.06Z" fill="#eeff00" id="id_104"></path>
</svg>